<svg width="120" height="119" fill="none" xmlns="http://www.w3.org/2000/svg"><path d="m89.2 47.574 7.051-.445.038-.003a16.61 16.61 0 0 0 12.374-7.204l5.574-8.155c4.851-7.1 6.731-15.675 5.291-24.145a7.443 7.443 0 0 0-2.402-4.315 7.48 7.48 0 0 0-4.584-1.86c-8.607-.411-16.916 2.478-23.401 8.133l-7.451 6.496a16.537 16.537 0 0 0-5.688 13.115c0 .012 0 .025.002.038l.401 7.033a9.884 9.884 0 0 1-2.76 7.417l-58.207 59.634c-1.559 1.62-2.363 3.843-2.266 6.26.109 2.661 1.333 5.274 3.275 6.991 1.756 1.551 4.168 2.435 6.58 2.435.258 0 .516-.01.773-.031 2.418-.192 4.536-1.255 5.97-3.003l52.374-64.764a9.938 9.938 0 0 1 7.057-3.627Zm-9.852 1.37-52.37 64.759c-.8.975-2.03 1.576-3.465 1.69-1.705.136-3.454-.43-4.679-1.513-1.225-1.084-1.997-2.747-2.066-4.452-.059-1.433.39-2.723 1.257-3.623l58.203-59.629a13.48 13.48 0 0 0 3.77-10.118l-.402-7.014a12.97 12.97 0 0 1 4.462-10.267l7.45-6.497c5.783-5.04 13.193-7.614 20.863-7.25a3.847 3.847 0 0 1 3.61 3.192c1.284 7.55-.392 15.194-4.717 21.524l-5.573 8.156a13.03 13.03 0 0 1-9.687 5.648l-7.031.443a13.555 13.555 0 0 0-9.625 4.95Z" fill="#195A00"/><path d="M116.677 102.86 77.649 67.41a1.803 1.803 0 0 0-2.541.118 1.792 1.792 0 0 0 .119 2.534l39.018 35.442c.928.855 1.454 2.116 1.483 3.55.034 1.705-.637 3.412-1.796 4.566-1.157 1.155-2.865 1.826-4.579 1.791-1.437-.028-2.702-.553-3.55-1.469L71.025 75.865a1.803 1.803 0 0 0-2.541-.118 1.791 1.791 0 0 0-.118 2.534l34.785 38.086c1.529 1.649 3.706 2.584 6.131 2.631l.189.002c2.607 0 5.213-1.055 7.005-2.842 1.836-1.832 2.901-4.513 2.848-7.175-.048-2.418-.984-4.59-2.647-6.123ZM21.705 47.234a16.682 16.682 0 0 0 10.93 4.393l7.064.022a9.934 9.934 0 0 1 7.258 3.193l3.112 3.406c.355.39.841.586 1.33.586a1.794 1.794 0 0 0 1.33-3.002l-3.117-3.41a13.552 13.552 0 0 0-9.901-4.361l-7.045-.022a13.09 13.09 0 0 1-8.442-3.368L3.752 20.4a.616.616 0 0 1 .036-.837.615.615 0 0 1 .439-.181c.096 0 .28.023.44.18L23.3 38.148a4.738 4.738 0 0 0 6.682 0l2.19-2.184 3.888-3.878v-.001l.002-.001L38.25 29.9a4.708 4.708 0 0 0 0-6.663L19.617 4.654a.62.62 0 0 1 .84-.912l24.336 20.417a13.01 13.01 0 0 1 3.378 8.418l.021 7.026a13.494 13.494 0 0 0 4.377 9.88l3.335 3.028a1.803 1.803 0 0 0 2.541-.118 1.792 1.792 0 0 0-.119-2.535l-3.328-3.023a9.89 9.89 0 0 1-3.208-7.243l-.022-7.045v-.039a16.588 16.588 0 0 0-4.404-10.862 1.797 1.797 0 0 0-.165-.158L22.772.996a4.202 4.202 0 0 0-5.698.245 4.202 4.202 0 0 0 0 5.95l18.634 18.584c.44.438.44 1.151 0 1.59l-.918.914L14.02 7.57a1.8 1.8 0 0 0-2.543 0 1.79 1.79 0 0 0 0 2.536l20.769 20.712-1.346 1.34-20.769-20.71c-.702-.7-1.841-.7-2.543 0a1.789 1.789 0 0 0 0 2.536l20.767 20.712-.917.916a1.13 1.13 0 0 1-1.594 0L7.21 17.027a4.197 4.197 0 0 0-2.983-1.232 4.197 4.197 0 0 0-2.983 1.232A4.176 4.176 0 0 0 1 22.711l20.549 24.36c.048.058.101.112.157.163Z" fill="#195A00"/></svg>