<svg width="120" height="119" fill="none" xmlns="http://www.w3.org/2000/svg"><path d="M20.002 65.403a1.993 1.993 0 0 0 2.001-1.983 1.993 1.993 0 0 0-2.002-1.983A1.993 1.993 0 0 0 18 63.42c0 1.095.896 1.983 2.002 1.983ZM28.001 59.457a1.993 1.993 0 0 0 2.002-1.983A1.993 1.993 0 0 0 28 55.49a1.992 1.992 0 0 0-2.002 1.983c0 1.095.897 1.983 2.002 1.983ZM48.002 57.476a1.993 1.993 0 0 0 2.001-1.984 1.993 1.993 0 0 0-2.002-1.983A1.992 1.992 0 0 0 46 55.492c0 1.096.896 1.984 2.002 1.984ZM14.002 75.312a1.992 1.992 0 0 0 2.002-1.983 1.993 1.993 0 0 0-2.002-1.984 1.993 1.993 0 0 0-2.001 1.984c0 1.095.896 1.983 2.002 1.983ZM24.002 73.33a1.993 1.993 0 0 0 2.001-1.983 1.993 1.993 0 0 0-2.002-1.983A1.993 1.993 0 0 0 22 71.347c0 1.095.896 1.983 2.002 1.983ZM32.002 67.385a1.992 1.992 0 0 0 2.001-1.984 1.993 1.993 0 0 0-2.002-1.983A1.992 1.992 0 0 0 30 65.401c0 1.096.896 1.984 2.002 1.984Z" fill="#195A00"/><path d="M114 21.8H86v-7.927c0-1.095.895-1.982 2-1.982h16c3.314 0 6-2.662 6-5.946C110 2.662 107.314 0 104 0H86c-6.625.007-11.993 5.326-12 11.89v9.91H46c-3.314 0-6 2.662-6 5.945v1.982c.008 2.554 1.666 4.816 4.114 5.615l.746 10.353c-.948-.056-1.894-.113-2.86-.113a47.808 47.808 0 0 0-8.634.804l-4.852-6.242c4.646-4.558 4.904-9.931 2.514-13.003-2.39-3.072-7.716-4.19-13.33-.908L16.4 24.555a2.008 2.008 0 0 0-3.47.43 1.968 1.968 0 0 0 .302 1.988l1.304 1.68c-4.662 4.558-4.89 9.943-2.514 13.003 2.418 3.11 7.764 4.162 13.33.907l3.748 4.822C14.484 51.527 4 62.467 4 75.31c-.005.872.046 1.744.152 2.61A5.954 5.954 0 0 0 8 82.849v4.35C3.976 87.196.578 90.158.07 94.113c-.508 3.956 2.033 7.667 5.93 8.661v4.245c0 2.972 1.131 5.835 3.166 8.018H2c-1.105 0-2 .888-2 1.982A1.99 1.99 0 0 0 2 119h116c1.105 0 2-.887 2-1.982a1.991 1.991 0 0 0-2-1.982h-10.486a11.79 11.79 0 0 0 3.142-7.164l5.23-72.534a5.936 5.936 0 0 0 4.114-5.61v-1.983c0-3.283-2.686-5.945-6-5.945ZM15.184 39.24c-1.6-2.065-.132-5.323 1.816-7.408l1.108 1.425a2.008 2.008 0 0 0 3.47-.43 1.968 1.968 0 0 0-.302-1.988l-1.108-1.425c2.418-1.274 6.048-1.964 7.692.15 1.988 2.557-.664 6.76-3.286 8.762-2.622 2.002-7.4 3.47-9.39.914ZM78 11.89c0-4.377 3.582-7.926 8-7.926h18c1.105 0 2 .887 2 1.981a1.99 1.99 0 0 1-2 1.982H88c-3.314 0-6 2.662-6 5.946V21.8h-4v-9.91Zm33.136 33.692H48.862l-.714-9.91h63.704l-.716 9.91Zm-3.716 51.527H83.716c.18-.646.276-1.312.284-1.982 0-4.378-3.582-7.927-8-7.927v-4.36a5.927 5.927 0 0 0 3.844-4.9c.108-.872.16-1.751.156-2.631 0-.75-.074-1.484-.144-2.22 3.945-.928 6.562-4.637 6.088-8.627-.474-3.99-3.89-6.995-7.944-6.99a7.945 7.945 0 0 0-4.4 1.358 36.213 36.213 0 0 0-12.724-9.285h49.976L107.42 97.11ZM76 91.163c2.21 0 4 1.775 4 3.964 0 2.19-1.79 3.964-4 3.964H38.828l8-7.928H76Zm2 15.855v-4.245a7.988 7.988 0 0 0 3.236-1.7h25.898l-.468 6.514c-.32 4.14-3.796 7.342-7.986 7.358H74.92a11.768 11.768 0 0 0 3.08-7.927Zm-2.054-44.987A3.969 3.969 0 0 1 78 61.436c1.976-.008 3.659 1.421 3.952 3.357a3.94 3.94 0 0 1-2.784 4.358 25.523 25.523 0 0 0-3.222-7.12Zm-44.23-11.275 4.7 6.047a2.012 2.012 0 0 0 2.799.352 1.97 1.97 0 0 0 .369-2.772l-3.442-4.427a44.644 44.644 0 0 1 5.858-.41c18.748 0 34 11.557 34 25.763a17.63 17.63 0 0 1-.128 2.18 1.993 1.993 0 0 1-2 1.784H10.12a2.005 2.005 0 0 1-2-1.812A17.48 17.48 0 0 1 8 75.31c0-11.495 9.982-21.241 23.716-24.553ZM12 83.236h60V87.2H46a2.01 2.01 0 0 0-1.414.58l-14.49 14.357-12.6-14.27A2.008 2.008 0 0 0 16 87.2h-4v-3.964ZM4 95.127c0-2.189 1.79-3.964 4-3.964h7.092l7 7.928H8c-2.21 0-4-1.775-4-3.964Zm14 19.818c-4.418 0-8-3.549-8-7.927v-3.964h15.6l1.496 1.695a4.025 4.025 0 0 0 2.878 1.349h.13a4.03 4.03 0 0 0 2.83-1.161l1.894-1.883H74v3.964c0 4.378-3.582 7.927-8 7.927H18Zm98-85.218a1.99 1.99 0 0 1-2 1.982H46c-1.105 0-2-.887-2-1.982v-1.982c0-1.094.895-1.981 2-1.981h68c1.105 0 2 .887 2 1.981v1.982Z" fill="#195A00"/><path d="M98 53.509c-4.418 0-8 3.55-8 7.927 0 4.378 3.582 7.927 8 7.927s8-3.549 8-7.927-3.582-7.927-8-7.927Zm0 11.89c-2.21 0-4-1.774-4-3.963s1.79-3.964 4-3.964c2.209 0 4 1.775 4 3.964 0 2.19-1.791 3.964-4 3.964ZM92 79.272c-3.314 0-6 2.662-6 5.946 0 3.283 2.686 5.945 6 5.945s6-2.662 6-5.945c0-3.284-2.686-5.946-6-5.946Zm0 7.928c-1.105 0-2-.888-2-1.982 0-1.095.895-1.982 2-1.982s2 .887 2 1.982a1.991 1.991 0 0 1-2 1.982Z" fill="#195A00"/></svg>