<svg width="120" height="119" fill="none" xmlns="http://www.w3.org/2000/svg"><path d="M113.789 80.805a22.654 22.654 0 0 1-9.71 3.806 22.7 22.7 0 0 1-10.394-.942 2.008 2.008 0 0 0-1.83.253l-8.997 6.348 2.316 3.245 8.163-5.77a26.852 26.852 0 0 0 11.756.727 26.805 26.805 0 0 0 10.928-4.373 28.393 28.393 0 0 0 3.341-2.63l-2.711-2.924a24.08 24.08 0 0 1-2.862 2.26Z" fill="#195A00"/><path d="M93.655 51.114a18.12 18.12 0 0 0-6.618 7.45 18.011 18.011 0 0 0-1.662 9.803L60.03 84.533 34.678 68.377a17.93 17.93 0 0 0-1.653-9.81 18.038 18.038 0 0 0-6.635-7.439 19.19 19.19 0 0 0-13.036-3.235A14.846 14.846 0 0 0 7.221 49.9a14.765 14.765 0 0 0-4.69 4.413 14.651 14.651 0 0 0-1.928 12.39A19.013 19.013 0 0 0 8.5 77.507a18.17 18.17 0 0 0 19.194 1.18l19.676 13.9-18.724 11.947a7.778 7.778 0 0 0-3.484 8.096 7.83 7.83 0 0 0 3.416 5.026 7.902 7.902 0 0 0 5.993 1.079 7.89 7.89 0 0 0 2.838-1.256l22.618-15.959 22.617 15.971a7.885 7.885 0 0 0 8.917.248A7.805 7.805 0 0 0 95 112.661a7.783 7.783 0 0 0-1.295-5.986 7.83 7.83 0 0 0-2.287-2.142L72.673 92.596l19.69-13.906a18.168 18.168 0 0 0 19.195-1.176c8.217-5.519 10.9-15.931 5.976-23.213-4.925-7.281-15.644-8.705-23.88-3.187Zm-58.56 63.129a3.963 3.963 0 0 1-5.422-.985 3.807 3.807 0 0 1 1.122-5.371l20.092-12.82 5.677 4.007-21.468 15.169Zm55.865-3.905a3.82 3.82 0 0 1-.216 2.25 3.845 3.845 0 0 1-1.452 1.74c-.648.422-1.41.64-2.184.625a3.865 3.865 0 0 1-2.159-.706l-56.061-39.59a2.007 2.007 0 0 0-2.336.016 13.908 13.908 0 0 1-15.815-.463 15.05 15.05 0 0 1-6.27-8.535 10.691 10.691 0 0 1 1.377-9.154 10.776 10.776 0 0 1 3.476-3.249 10.838 10.838 0 0 1 4.544-1.442 15.18 15.18 0 0 1 10.301 2.587 13.807 13.807 0 0 1 5.444 6.219 13.722 13.722 0 0 1 .902 8.198 1.98 1.98 0 0 0 .86 2.163l57.891 36.888a3.817 3.817 0 0 1 1.698 2.453Zm18.354-36.132a13.91 13.91 0 0 1-15.817.46 2.005 2.005 0 0 0-2.335-.017l-22.12 15.625-5.303-3.382L88.68 70.977a1.991 1.991 0 0 0 .86-2.159 13.793 13.793 0 0 1 .92-8.194 13.878 13.878 0 0 1 5.434-6.223c6.398-4.291 14.624-3.344 18.321 2.105 3.697 5.449 1.495 13.408-4.901 17.7ZM21.894 3.646 19.68.332a25.88 25.88 0 0 0-10.29 13.35 25.74 25.74 0 0 0 .14 16.824l3.768-1.33a21.78 21.78 0 0 1-.114-14.236 21.898 21.898 0 0 1 8.712-11.294h-.002ZM17.541 36.343a22.134 22.134 0 0 1-2.547-3.518l-3.461 1.99a26.098 26.098 0 0 0 3.009 4.158l2.999-2.63Z" fill="#195A00"/><path d="m81.983 68.038 5.692-28.317c4.628-.4 8.92-2.567 11.98-6.045a17.853 17.853 0 0 0 4.436-12.616 17.869 17.869 0 0 0-5.582-12.157 18.044 18.044 0 0 0-12.488-4.924 17.827 17.827 0 0 0-11.132 3.85 17.937 17.937 0 0 0-6.453-5.751 18.04 18.04 0 0 0-16.814 0 17.937 17.937 0 0 0-6.453 5.75 17.827 17.827 0 0 0-11.133-3.85c-4.629 0-9.08 1.775-12.429 4.956A17.866 17.866 0 0 0 16.06 21.06a17.85 17.85 0 0 0 4.405 12.582 18.026 18.026 0 0 0 11.919 6.07l5.692 28.326 3.92-.78-1.12-5.586h38.308l-1.12 5.57 3.92.796ZM72.33 57.693l1.674-11.654-3.959-.565-1.754 12.22h-6.264V35.81H58.03v21.883h-6.265l-1.753-12.219-3.959.565 1.674 11.654h-7.652l-4.08-20.292a1.988 1.988 0 0 0-.694-1.143 2.006 2.006 0 0 0-1.265-.448 14.032 14.032 0 0 1-9.896-4.08 13.89 13.89 0 0 1-4.1-9.846 13.89 13.89 0 0 1 4.1-9.848 14.031 14.031 0 0 1 9.896-4.078 13.918 13.918 0 0 1 5.54 1.134 13.859 13.859 0 0 1 4.623 3.242 2 2 0 0 0 1.757.6 2.004 2.004 0 0 0 1.495-1.097 13.922 13.922 0 0 1 5.153-5.729 14.02 14.02 0 0 1 14.85 0 13.922 13.922 0 0 1 5.153 5.729 1.991 1.991 0 0 0 1.495 1.097 2.01 2.01 0 0 0 1.756-.6 13.859 13.859 0 0 1 4.623-3.242 13.918 13.918 0 0 1 5.54-1.134c3.712 0 7.272 1.467 9.897 4.078a13.89 13.89 0 0 1 4.099 9.848 13.89 13.89 0 0 1-4.1 9.847 14.032 14.032 0 0 1-9.896 4.079c-.46 0-.907.158-1.264.448-.358.29-.603.694-.695 1.143l-4.079 20.292h-7.652Z" fill="#195A00"/></svg>