<svg width="120" height="119" fill="none" xmlns="http://www.w3.org/2000/svg"><path d="M20.312 67.63a2.345 2.345 0 0 0-3.281-.698 2.336 2.336 0 0 0-.655 3.236 2.344 2.344 0 0 0 3.232.691 2.333 2.333 0 0 0 .704-3.23ZM16.747 61.824a110.482 110.482 0 0 1-6.102-12.42 2.346 2.346 0 0 0-3.062-1.265 2.334 2.334 0 0 0-1.268 3.053c1.84 4.43 3.98 8.785 6.36 12.947a2.344 2.344 0 0 0 3.198.873 2.333 2.333 0 0 0 .874-3.188ZM68.344 34.844a10.774 10.774 0 0 0-1.403-.092c-5.324 0-9.864 3.974-10.56 9.244-.767 5.812 3.35 11.163 9.179 11.928.465.061.936.092 1.402.092 5.324 0 9.864-3.974 10.56-9.245.767-5.811-3.35-11.162-9.178-11.927Zm4.53 11.317a5.98 5.98 0 0 1-6.702 5.129c-3.266-.43-5.573-3.427-5.143-6.684a5.98 5.98 0 0 1 6.703-5.128c3.266.43 5.573 3.427 5.143 6.683ZM67.734 63.913a10.76 10.76 0 0 0-1.402-.092c-5.325 0-9.864 3.974-10.56 9.245a10.538 10.538 0 0 0 2.112 7.859 10.598 10.598 0 0 0 7.066 4.068c.465.061.936.092 1.402.092 5.324 0 9.864-3.974 10.56-9.245.768-5.81-3.35-11.161-9.178-11.927Zm4.531 11.318a5.98 5.98 0 0 1-10.662 2.848 5.904 5.904 0 0 1-1.184-4.404 5.98 5.98 0 0 1 6.703-5.128c3.266.43 5.573 3.427 5.143 6.684ZM52.275 54.232l-7.203-.946a2.342 2.342 0 0 0-2.63 2.012 2.338 2.338 0 0 0 2.017 2.622l7.204.945a2.345 2.345 0 0 0 2.63-2.011 2.338 2.338 0 0 0-2.018-2.622ZM48.623 71.478l-.637-4.82a2.342 2.342 0 0 0-2.63-2.012 2.338 2.338 0 0 0-2.017 2.622l.636 4.82a2.342 2.342 0 0 0 2.63 2.012 2.338 2.338 0 0 0 2.018-2.622Z" fill="#195A00"/><path d="M119.303.67a2.357 2.357 0 0 0-2.434-.534l-97.348 34.42a12.906 12.906 0 0 0-11.607-.915C1.384 36.324-1.729 43.775.976 50.252c6.38 15.272 15.59 28.943 27.377 40.631 11.787 11.689 25.572 20.823 40.973 27.149 1.599.657 3.257.968 4.889.968 5.033 0 9.819-2.958 11.861-7.849a12.577 12.577 0 0 0-.07-9.873l33.868-98.201a2.312 2.312 0 0 0-.571-2.406ZM34.261 34.28l10.317-3.648a5.882 5.882 0 0 1 1.565 4.823 5.878 5.878 0 0 1-2.287 3.927 5.971 5.971 0 0 1-4.416 1.174 5.946 5.946 0 0 1-3.96-2.267 5.846 5.846 0 0 1-1.22-4.01Zm47.485 75.092c-1.716 4.109-6.484 6.067-10.626 4.365C41.11 101.41 17.736 78.232 5.306 48.473a7.95 7.95 0 0 1 0-6.172 8.046 8.046 0 0 1 4.401-4.365 8.142 8.142 0 0 1 6.225 0 8.046 8.046 0 0 1 4.401 4.364c5.32 12.739 13.003 24.14 22.835 33.89S64.5 93.56 77.344 98.835c4.143 1.702 6.118 6.429 4.402 10.537Zm20.822-70.481a5.945 5.945 0 0 1-4.595-2.312 5.85 5.85 0 0 1-1.184-4.38c.43-3.238 3.436-5.525 6.703-5.1a5.995 5.995 0 0 1 2.761 1.11l-3.685 10.682Zm5.243-15.202a10.727 10.727 0 0 0-3.707-1.198c-5.83-.763-11.195 3.322-11.962 9.102-.372 2.8.378 5.576 2.112 7.816a10.599 10.599 0 0 0 6.757 3.998l-4.659 13.508-5.357-4.076a2.357 2.357 0 0 0-3.286.428 2.311 2.311 0 0 0 .432 3.26l6.611 5.03-12.116 35.131a12.786 12.786 0 0 0-3.497-2.148c-24.84-10.203-44.184-29.387-54.473-54.019a12.668 12.668 0 0 0-1.314-2.384l6.276-2.22a10.46 10.46 0 0 0 2.134 5.201 10.61 10.61 0 0 0 7.066 4.046c.473.062.945.092 1.414.092a10.64 10.64 0 0 0 6.468-2.186 10.486 10.486 0 0 0 4.08-7.008 10.484 10.484 0 0 0-1.586-7.066L78.34 18.695l1.104 2.643a2.345 2.345 0 0 0 3.062 1.258 2.318 2.318 0 0 0 1.269-3.037l-1.014-2.427 31.106-11-6.055 17.557Z" fill="#195A00"/></svg>