<svg width="55" height="57" viewBox="0 0 55 57" fill="none" xmlns="http://www.w3.org/2000/svg">
<path d="M10.4844 21.4416C10.228 21.441 9.97494 21.3813 9.74382 21.2668C9.5127 21.1522 9.30935 20.9858 9.14867 20.7797C8.98799 20.5737 8.87406 20.3331 8.81521 20.0757C8.75637 19.8183 8.75411 19.5506 8.8086 19.2922C10.1836 12.4672 18.0254 7.25977 27.5 7.25977C36.9746 7.25977 44.8164 12.4672 46.1914 19.2922C46.2459 19.5506 46.2436 19.8183 46.1848 20.0757C46.1259 20.3331 46.012 20.5737 45.8513 20.7797C45.6906 20.9858 45.4873 21.1522 45.2562 21.2668C45.0251 21.3813 44.772 21.441 44.5156 21.4416H10.4844Z" stroke="#333333" stroke-width="2" stroke-linecap="round" stroke-linejoin="round"/>
<path d="M44.6875 37.3961V40.9416C44.6875 42.8222 43.9632 44.6258 42.6739 45.9556C41.3845 47.2854 39.6359 48.0325 37.8125 48.0325H17.1875C15.3641 48.0325 13.6155 47.2854 12.3261 45.9556C11.0368 44.6258 10.3125 42.8222 10.3125 40.9416V37.3961" stroke="#333333" stroke-width="2" stroke-linecap="round" stroke-linejoin="round"/>
<path d="M6.01562 39.1689L14.6094 35.6234L23.2031 39.1689L31.7969 35.6234L40.3906 39.1689L48.9844 35.6234" stroke="#333333" stroke-width="2" stroke-linecap="round" stroke-linejoin="round"/>
<path d="M5.15625 28.5325H49.8438" stroke="#333333" stroke-width="2" stroke-linecap="round" stroke-linejoin="round"/>
</svg>
