<svg xmlns="http://www.w3.org/2000/svg" width="80" height="78" fill="none"><path stroke="#4F4F4F" stroke-linecap="round" stroke-linejoin="round" stroke-width="2" d="M39.969 20.5a8.75 8.75 0 1 0 0-17.5 8.75 8.75 0 0 0 0 17.5ZM48.093 40.094l10.875 8.437a3.75 3.75 0 0 0 5.281-5.281L51.874 27.344a6.218 6.218 0 0 0-4.406-1.844h-15a6.343 6.343 0 0 0-4.438 1.844L15.655 43.25a3.75 3.75 0 0 0 5.313 5.281l10.875-8.437-8.688 27.375a3.759 3.759 0 0 0 1.813 5 3.763 3.763 0 0 0 5-1.813l10-15.75 10 15.75a3.747 3.747 0 0 0 5.054 1.947 3.75 3.75 0 0 0 1.727-5.134l-8.656-27.375Z"/></svg>